<svg width="150" height="50" fill="none" xmlns="http://www.w3.org/2000/svg"><path fill="none" d="M0 0h150v50H0z"/><path d="M104.429 19.786l40.61.42a5.013 5.013 0 0 1-.078 10.024l-39.978-.206a44.786 44.786 0 0 0-9.203.907l-36.6 7.483a44.998 44.998 0 0 1-18.026 0L4.999 31.022a6.251 6.251 0 0 1 .06-12.261l36.529-7.095a44.997 44.997 0 0 1 17.159 0l37.567 7.297a45 45 0 0 0 8.115.823z" fill="#004DC1"/><path d="M45.57 30.214l-40.609-.42a5.013 5.013 0 0 1 .078-10.024l39.979.206c3.09.016 6.174-.288 9.201-.907l36.6-7.483a44.996 44.996 0 0 1 18.027 0l36.155 7.392a6.25 6.25 0 0 1-.06 12.261l-36.529 7.095a44.995 44.995 0 0 1-17.159 0l-37.567-7.297a45.002 45.002 0 0 0-8.115-.823z" fill="#004DC1"/><path d="M39.075 28.083c0-.581-.205-1.025-.616-1.333-.41-.314-1.148-.643-2.214-.984-1.067-.349-1.911-.69-2.533-1.026-1.695-.916-2.543-2.15-2.543-3.701a3.6 3.6 0 0 1 .677-2.154c.458-.636 1.11-1.131 1.958-1.487.855-.355 1.812-.533 2.871-.533 1.067 0 2.017.195 2.85.585.835.383 1.48.926 1.939 1.63.465.704.697 1.504.697 2.4h-3.076c0-.684-.215-1.214-.646-1.59-.43-.383-1.036-.574-1.815-.574-.752 0-1.336.16-1.753.482a1.49 1.49 0 0 0-.626 1.25c0 .486.243.893.728 1.221.492.328 1.214.636 2.164.923 1.75.526 3.025 1.18 3.824 1.958.8.78 1.2 1.75 1.2 2.913 0 1.292-.489 2.307-1.466 3.045-.978.731-2.294 1.097-3.948 1.097-1.148 0-2.194-.208-3.138-.625-.943-.424-1.664-1.002-2.163-1.733-.492-.732-.739-1.58-.739-2.543h3.087c0 1.647.984 2.47 2.953 2.47.731 0 1.302-.146 1.712-.44.41-.3.616-.718.616-1.251zM47.185 32h-2.973V20.905h2.973V32zm-3.147-13.966c0-.444.147-.81.44-1.097.301-.287.708-.43 1.22-.43.507 0 .91.143 1.21.43.301.287.452.653.452 1.097 0 .451-.154.82-.462 1.108-.3.287-.7.43-1.2.43-.498 0-.902-.143-1.21-.43-.3-.287-.45-.657-.45-1.108zm9.146.144v2.727h1.897v2.174h-1.897v5.537c0 .41.079.704.236.882.157.178.458.267.902.267.328 0 .619-.024.872-.072v2.245a6.101 6.101 0 0 1-1.795.267c-2.078 0-3.137-1.05-3.178-3.148V23.08H48.6v-2.174h1.62v-2.727h2.963zm8.654 14.027c-1.627 0-2.953-.499-3.978-1.497-1.019-.998-1.528-2.328-1.528-3.989v-.287c0-1.114.215-2.109.646-2.984.43-.882 1.04-1.558 1.825-2.03.793-.479 1.696-.718 2.707-.718 1.518 0 2.71.479 3.579 1.436.875.957 1.312 2.314 1.312 4.07v1.21h-7.065c.096.725.383 1.306.862 1.744.485.437 1.097.656 1.835.656 1.142 0 2.034-.414 2.677-1.24l1.456 1.63c-.445.628-1.046 1.12-1.805 1.476-.759.349-1.6.523-2.523.523zM61.5 23.1c-.588 0-1.066.198-1.435.594-.363.397-.595.964-.698 1.703h4.122v-.236c-.013-.657-.191-1.163-.533-1.518-.342-.362-.827-.543-1.456-.543zm15.094 6.429h6.532V32h-9.608V17.07h3.076V29.53zm7.65-3.179c0-1.1.211-2.081.635-2.943a4.664 4.664 0 0 1 1.825-2c.8-.471 1.726-.707 2.779-.707 1.497 0 2.717.458 3.66 1.374.95.916 1.48 2.16 1.59 3.733l.02.758c0 1.703-.475 3.07-1.425 4.102-.95 1.025-2.225 1.538-3.825 1.538s-2.877-.513-3.835-1.538c-.95-1.025-1.425-2.42-1.425-4.184v-.133zm2.963.215c0 1.053.198 1.86.594 2.42.397.554.964.83 1.702.83.718 0 1.279-.273 1.682-.82.403-.553.605-1.435.605-2.645 0-1.032-.202-1.832-.605-2.4-.403-.567-.97-.85-1.702-.85-.725 0-1.285.283-1.682.85-.396.561-.594 1.433-.594 2.615zm8.94-.194c0-1.702.404-3.073 1.21-4.112.814-1.04 1.908-1.559 3.282-1.559 1.217 0 2.164.417 2.84 1.251l.124-1.046h2.686v10.726c0 .97-.222 1.815-.666 2.533-.438.717-1.057 1.264-1.856 1.64-.8.376-1.737.564-2.81.564a6.031 6.031 0 0 1-2.379-.492c-.772-.321-1.357-.738-1.753-1.251l1.312-1.805c.739.828 1.634 1.241 2.687 1.241.786 0 1.398-.212 1.835-.636.438-.417.656-1.011.656-1.784v-.595c-.683.773-1.582 1.16-2.696 1.16-1.333 0-2.413-.52-3.24-1.56-.82-1.045-1.231-2.43-1.231-4.152v-.123zm2.964.215c0 1.005.202 1.794.605 2.369.404.567.957.85 1.661.85.903 0 1.549-.338 1.938-1.014v-4.666c-.396-.677-1.035-1.015-1.917-1.015-.711 0-1.272.29-1.682.871-.403.581-.605 1.45-.605 2.605zm9.003-.236c0-1.1.212-2.081.636-2.943a4.664 4.664 0 0 1 1.825-2c.8-.471 1.726-.707 2.779-.707 1.497 0 2.717.458 3.661 1.374.95.916 1.48 2.16 1.589 3.733l.021.758c0 1.703-.476 3.07-1.426 4.102-.95 1.025-2.225 1.538-3.824 1.538-1.6 0-2.878-.513-3.835-1.538-.951-1.025-1.426-2.42-1.426-4.184v-.133zm2.964.215c0 1.053.198 1.86.594 2.42.397.554.964.83 1.703.83.717 0 1.278-.273 1.681-.82.403-.553.605-1.435.605-2.645 0-1.032-.202-1.832-.605-2.4-.403-.567-.971-.85-1.702-.85-.725 0-1.285.283-1.682.85-.396.561-.594 1.433-.594 2.615z" fill="#EEF8FF"/></svg>