<svg width="150" height="50" viewBox="0 0 150 50" fill="none" xmlns="http://www.w3.org/2000/svg">
<rect width="150" height="50" fill="black" fill-opacity="0"/>
<path d="M104.429 19.7859L145.039 20.2052C147.787 20.2336 150 22.4694 150 25.2177C150 27.9963 147.74 30.2447 144.961 30.2304L104.983 30.024C101.892 30.008 98.8084 30.312 95.7805 30.931L59.1808 38.4136C53.2333 39.6296 47.1012 39.6296 41.1537 38.4136L4.99909 31.022C2.08947 30.4272 0 27.8673 0 24.8975C0 21.9046 2.12135 19.3316 5.05936 18.761L41.5876 11.6664C47.2544 10.5657 53.0801 10.5657 58.7469 11.6664L96.3144 18.9628C98.9889 19.4823 101.705 19.7577 104.429 19.7859Z" fill="#004DC1"/>
<path d="M45.5706 30.2141L4.96101 29.7948C2.21288 29.7664 0 27.5306 0 24.7823C0 22.0037 2.2601 19.7553 5.03865 19.7696L45.0175 19.976C48.1079 19.992 51.1917 19.688 54.2195 19.069L90.8192 11.5864C96.7668 10.3704 102.899 10.3704 108.846 11.5864L145.001 18.978C147.911 19.5728 150 22.1327 150 25.1025C150 28.0954 147.879 30.6684 144.941 31.239L108.412 38.3336C102.746 39.4343 96.92 39.4343 91.2531 38.3336L53.6856 31.0372C51.0111 30.5177 48.2949 30.2423 45.5706 30.2141Z" fill="#004DC1"/>
<path d="M39.0747 28.083C39.0747 27.502 38.8696 27.0576 38.4595 26.75C38.0493 26.4355 37.311 26.1074 36.2446 25.7656C35.1782 25.417 34.334 25.0752 33.7119 24.7402C32.0166 23.8242 31.1689 22.5903 31.1689 21.0386C31.1689 20.2319 31.3945 19.5142 31.8457 18.8853C32.3037 18.2495 32.9565 17.7539 33.8042 17.3984C34.6587 17.043 35.6157 16.8652 36.6753 16.8652C37.7417 16.8652 38.6919 17.0601 39.5259 17.4497C40.3599 17.8325 41.0059 18.376 41.4639 19.0801C41.9287 19.7842 42.1611 20.584 42.1611 21.4795H39.085C39.085 20.7959 38.8696 20.2661 38.439 19.8901C38.0083 19.5073 37.4033 19.3159 36.624 19.3159C35.8721 19.3159 35.2876 19.4766 34.8706 19.7979C34.4536 20.1123 34.2451 20.5293 34.2451 21.0488C34.2451 21.5342 34.4878 21.9409 34.9731 22.269C35.4653 22.5972 36.1865 22.9048 37.1367 23.1919C38.8867 23.7183 40.1616 24.3711 40.9614 25.1504C41.7612 25.9297 42.1611 26.9004 42.1611 28.0625C42.1611 29.3545 41.6724 30.3696 40.6948 31.1079C39.7173 31.8394 38.4014 32.2051 36.7471 32.2051C35.5986 32.2051 34.5527 31.9966 33.6094 31.5796C32.666 31.1558 31.9448 30.5781 31.4458 29.8467C30.9536 29.1152 30.7075 28.2676 30.7075 27.3037H33.7939C33.7939 28.9512 34.7783 29.7749 36.7471 29.7749C37.4785 29.7749 38.0493 29.6279 38.4595 29.334C38.8696 29.0332 39.0747 28.6162 39.0747 28.083ZM47.1855 32H44.2119V20.9053H47.1855V32ZM44.0376 18.0342C44.0376 17.5898 44.1846 17.2241 44.4785 16.937C44.7793 16.6499 45.186 16.5063 45.6987 16.5063C46.2046 16.5063 46.6079 16.6499 46.9087 16.937C47.2095 17.2241 47.3599 17.5898 47.3599 18.0342C47.3599 18.4854 47.2061 18.8545 46.8984 19.1416C46.5977 19.4287 46.1978 19.5723 45.6987 19.5723C45.1997 19.5723 44.7964 19.4287 44.4888 19.1416C44.188 18.8545 44.0376 18.4854 44.0376 18.0342ZM53.1841 18.1777V20.9053H55.0811V23.0791H53.1841V28.6162C53.1841 29.0264 53.2627 29.3203 53.4199 29.498C53.5771 29.6758 53.8779 29.7646 54.3223 29.7646C54.6504 29.7646 54.9409 29.7407 55.1938 29.6929V31.9385C54.6128 32.1162 54.0146 32.2051 53.3994 32.2051C51.3213 32.2051 50.2617 31.1558 50.2207 29.0571V23.0791H48.6006V20.9053H50.2207V18.1777H53.1841ZM61.8384 32.2051C60.2114 32.2051 58.8853 31.7061 57.8599 30.708C56.8413 29.71 56.332 28.3804 56.332 26.7192V26.4321C56.332 25.3179 56.5474 24.3232 56.978 23.4482C57.4087 22.5664 58.0171 21.8896 58.8032 21.418C59.5962 20.9395 60.4985 20.7002 61.5103 20.7002C63.0278 20.7002 64.2207 21.1787 65.0889 22.1357C65.9639 23.0928 66.4014 24.4497 66.4014 26.2065V27.4165H59.3364C59.4321 28.1411 59.7192 28.7222 60.1978 29.1597C60.6831 29.5972 61.2949 29.8159 62.0332 29.8159C63.1748 29.8159 64.0669 29.4023 64.7095 28.5752L66.1655 30.2056C65.7212 30.8345 65.1196 31.3267 64.3608 31.6821C63.6021 32.0308 62.7612 32.2051 61.8384 32.2051ZM61.5 23.0996C60.9121 23.0996 60.4336 23.2979 60.0645 23.6943C59.7021 24.0908 59.4697 24.6582 59.3672 25.3965H63.4893V25.1606C63.4756 24.5044 63.2979 23.9985 62.9561 23.6431C62.6143 23.2808 62.1289 23.0996 61.5 23.0996ZM76.5938 29.5288H83.1255V32H73.5176V17.0703H76.5938V29.5288ZM84.2432 26.3501C84.2432 25.2495 84.4551 24.2686 84.8789 23.4072C85.3027 22.5459 85.9111 21.8794 86.7041 21.4077C87.5039 20.936 88.4302 20.7002 89.4829 20.7002C90.98 20.7002 92.2002 21.1582 93.1436 22.0742C94.0938 22.9902 94.6235 24.2344 94.7329 25.8066L94.7534 26.5654C94.7534 28.2676 94.2783 29.6348 93.3281 30.667C92.3779 31.6924 91.103 32.2051 89.5034 32.2051C87.9038 32.2051 86.6255 31.6924 85.6685 30.667C84.7183 29.6416 84.2432 28.2471 84.2432 26.4834V26.3501ZM87.2065 26.5654C87.2065 27.6182 87.4048 28.4248 87.8013 28.9854C88.1978 29.5391 88.7651 29.8159 89.5034 29.8159C90.2212 29.8159 90.7817 29.5425 91.1851 28.9956C91.5884 28.4419 91.79 27.5601 91.79 26.3501C91.79 25.3179 91.5884 24.5181 91.1851 23.9507C90.7817 23.3833 90.2144 23.0996 89.4829 23.0996C88.7583 23.0996 88.1978 23.3833 87.8013 23.9507C87.4048 24.5112 87.2065 25.3828 87.2065 26.5654ZM96.1479 26.3706C96.1479 24.6685 96.5513 23.2979 97.3579 22.2588C98.1714 21.2197 99.2651 20.7002 100.639 20.7002C101.856 20.7002 102.803 21.1172 103.479 21.9512L103.603 20.9053H106.289V31.6309C106.289 32.6016 106.067 33.4458 105.623 34.1636C105.185 34.8813 104.566 35.4282 103.767 35.8042C102.967 36.1802 102.03 36.3682 100.957 36.3682C100.144 36.3682 99.3506 36.2041 98.5781 35.876C97.8057 35.5547 97.2212 35.1377 96.8247 34.625L98.1372 32.8203C98.8755 33.6475 99.771 34.061 100.824 34.061C101.61 34.061 102.222 33.8491 102.659 33.4253C103.097 33.0083 103.315 32.4136 103.315 31.6411V31.0464C102.632 31.8188 101.733 32.2051 100.619 32.2051C99.2856 32.2051 98.2056 31.6855 97.3784 30.6465C96.5581 29.6006 96.1479 28.2163 96.1479 26.4937V26.3706ZM99.1113 26.5859C99.1113 27.5908 99.313 28.3804 99.7163 28.9546C100.12 29.522 100.673 29.8057 101.377 29.8057C102.28 29.8057 102.926 29.4673 103.315 28.7905V24.125C102.919 23.4482 102.28 23.1099 101.398 23.1099C100.687 23.1099 100.126 23.4004 99.7163 23.9814C99.313 24.5625 99.1113 25.4307 99.1113 26.5859ZM108.114 26.3501C108.114 25.2495 108.326 24.2686 108.75 23.4072C109.174 22.5459 109.782 21.8794 110.575 21.4077C111.375 20.936 112.301 20.7002 113.354 20.7002C114.851 20.7002 116.071 21.1582 117.015 22.0742C117.965 22.9902 118.495 24.2344 118.604 25.8066L118.625 26.5654C118.625 28.2676 118.149 29.6348 117.199 30.667C116.249 31.6924 114.974 32.2051 113.375 32.2051C111.775 32.2051 110.497 31.6924 109.54 30.667C108.589 29.6416 108.114 28.2471 108.114 26.4834V26.3501ZM111.078 26.5654C111.078 27.6182 111.276 28.4248 111.672 28.9854C112.069 29.5391 112.636 29.8159 113.375 29.8159C114.092 29.8159 114.653 29.5425 115.056 28.9956C115.459 28.4419 115.661 27.5601 115.661 26.3501C115.661 25.3179 115.459 24.5181 115.056 23.9507C114.653 23.3833 114.085 23.0996 113.354 23.0996C112.629 23.0996 112.069 23.3833 111.672 23.9507C111.276 24.5112 111.078 25.3828 111.078 26.5654Z" fill="#EEF8FF"/>
</svg>
