<svg xmlns="http://www.w3.org/2000/svg" xmlns:xlink="http://www.w3.org/1999/xlink"><defs><style>
    .sprite-symbol-usage {display: none;}
    .sprite-symbol-usage:target {display: inline;}
  </style><symbol fill="none" viewBox="0 0 7 9" id="blank"></symbol><symbol viewBox="0 0 54 54" id="gear"><path d="M27 13c-7.72 0-14 6.28-14 14s6.28 14 14 14 14-6.28 14-14-6.28-14-14-14zm0 26c-6.617 0-12-5.383-12-12s5.383-12 12-12 12 5.383 12 12-5.383 12-12 12z" /><path d="M51.22 21h-2.018a22.792 22.792 0 0 0-2.26-5.457l1.426-1.426a2.763 2.763 0 0 0 .814-1.966c0-.743-.289-1.441-.814-1.967l-4.553-4.553c-1.05-1.049-2.881-1.051-3.933 0l-1.426 1.426A22.856 22.856 0 0 0 33 4.798V2.78A2.783 2.783 0 0 0 30.22 0h-6.44A2.783 2.783 0 0 0 21 2.78v2.018a22.842 22.842 0 0 0-5.457 2.26l-1.426-1.426c-1.051-1.052-2.883-1.05-3.933 0l-4.553 4.553a2.764 2.764 0 0 0-.814 1.967c0 .742.289 1.44.814 1.966l1.426 1.426A22.765 22.765 0 0 0 4.798 21H2.78A2.783 2.783 0 0 0 0 23.78v6.439A2.783 2.783 0 0 0 2.78 33h2.018a22.842 22.842 0 0 0 2.26 5.457l-1.426 1.426a2.763 2.763 0 0 0-.814 1.966c0 .743.289 1.441.814 1.967l4.553 4.553c1.05 1.051 2.882 1.052 3.933 0l1.426-1.426a22.883 22.883 0 0 0 5.457 2.26v2.018a2.783 2.783 0 0 0 2.78 2.78h6.439a2.783 2.783 0 0 0 2.78-2.78v-2.018a22.842 22.842 0 0 0 5.457-2.26l1.426 1.426c1.052 1.052 2.882 1.05 3.933 0l4.553-4.553a2.764 2.764 0 0 0 .814-1.967c0-.742-.289-1.44-.814-1.966l-1.426-1.426A22.883 22.883 0 0 0 49.203 33h2.018a2.783 2.783 0 0 0 2.78-2.78v-6.44A2.785 2.785 0 0 0 51.22 21zm.78 9.22c0 .43-.35.78-.78.78h-3.592l-.18.773a20.885 20.885 0 0 1-2.613 6.311l-.42.674 2.539 2.539a.78.78 0 0 1 0 1.104l-4.553 4.553a.78.78 0 0 1-1.104 0l-2.539-2.539-.674.42a20.839 20.839 0 0 1-6.311 2.613l-.773.18v3.592c0 .43-.35.78-.78.78h-6.44c-.43 0-.78-.35-.78-.78v-3.592l-.773-.18a20.885 20.885 0 0 1-6.311-2.613l-.674-.42-2.539 2.539a.78.78 0 0 1-1.104 0l-4.553-4.553a.78.78 0 0 1 0-1.104l2.539-2.539-.42-.674a20.839 20.839 0 0 1-2.613-6.311L6.372 31H2.78c-.43 0-.78-.35-.78-.78v-6.44c0-.43.35-.78.78-.78h3.592l.18-.773a20.864 20.864 0 0 1 2.613-6.311l.42-.674-2.539-2.539a.78.78 0 0 1 0-1.104l4.553-4.553a.78.78 0 0 1 1.104 0l2.539 2.539.674-.42a20.839 20.839 0 0 1 6.311-2.613l.773-.18V2.78c0-.43.35-.78.78-.78h6.439c.431 0 .781.35.781.78v3.592l.773.18a20.885 20.885 0 0 1 6.311 2.613l.674.42 2.539-2.539a.78.78 0 0 1 1.104 0l4.553 4.553a.78.78 0 0 1 0 1.104l-2.539 2.539.42.674a20.818 20.818 0 0 1 2.613 6.311l.18.773h3.592c.43 0 .78.35.78.78v6.44z" /><path d="M27 17c-5.514 0-10 4.486-10 10s4.486 10 10 10 10-4.486 10-10-4.486-10-10-10zm0 18c-4.411 0-8-3.589-8-8s3.589-8 8-8 8 3.589 8 8-3.589 8-8 8z" /></symbol><symbol viewBox="0 0 54 54" id="gear"><path d="M27 13c-7.72 0-14 6.28-14 14s6.28 14 14 14 14-6.28 14-14-6.28-14-14-14zm0 26c-6.617 0-12-5.383-12-12s5.383-12 12-12 12 5.383 12 12-5.383 12-12 12z" /><path d="M51.22 21h-2.018a22.792 22.792 0 0 0-2.26-5.457l1.426-1.426a2.763 2.763 0 0 0 .814-1.966c0-.743-.289-1.441-.814-1.967l-4.553-4.553c-1.05-1.049-2.881-1.051-3.933 0l-1.426 1.426A22.856 22.856 0 0 0 33 4.798V2.78A2.783 2.783 0 0 0 30.22 0h-6.44A2.783 2.783 0 0 0 21 2.78v2.018a22.842 22.842 0 0 0-5.457 2.26l-1.426-1.426c-1.051-1.052-2.883-1.05-3.933 0l-4.553 4.553a2.764 2.764 0 0 0-.814 1.967c0 .742.289 1.44.814 1.966l1.426 1.426A22.765 22.765 0 0 0 4.798 21H2.78A2.783 2.783 0 0 0 0 23.78v6.439A2.783 2.783 0 0 0 2.78 33h2.018a22.842 22.842 0 0 0 2.26 5.457l-1.426 1.426a2.763 2.763 0 0 0-.814 1.966c0 .743.289 1.441.814 1.967l4.553 4.553c1.05 1.051 2.882 1.052 3.933 0l1.426-1.426a22.883 22.883 0 0 0 5.457 2.26v2.018a2.783 2.783 0 0 0 2.78 2.78h6.439a2.783 2.783 0 0 0 2.78-2.78v-2.018a22.842 22.842 0 0 0 5.457-2.26l1.426 1.426c1.052 1.052 2.882 1.05 3.933 0l4.553-4.553a2.764 2.764 0 0 0 .814-1.967c0-.742-.289-1.44-.814-1.966l-1.426-1.426A22.883 22.883 0 0 0 49.203 33h2.018a2.783 2.783 0 0 0 2.78-2.78v-6.44A2.785 2.785 0 0 0 51.22 21zm.78 9.22c0 .43-.35.78-.78.78h-3.592l-.18.773a20.885 20.885 0 0 1-2.613 6.311l-.42.674 2.539 2.539a.78.78 0 0 1 0 1.104l-4.553 4.553a.78.78 0 0 1-1.104 0l-2.539-2.539-.674.42a20.839 20.839 0 0 1-6.311 2.613l-.773.18v3.592c0 .43-.35.78-.78.78h-6.44c-.43 0-.78-.35-.78-.78v-3.592l-.773-.18a20.885 20.885 0 0 1-6.311-2.613l-.674-.42-2.539 2.539a.78.78 0 0 1-1.104 0l-4.553-4.553a.78.78 0 0 1 0-1.104l2.539-2.539-.42-.674a20.839 20.839 0 0 1-2.613-6.311L6.372 31H2.78c-.43 0-.78-.35-.78-.78v-6.44c0-.43.35-.78.78-.78h3.592l.18-.773a20.864 20.864 0 0 1 2.613-6.311l.42-.674-2.539-2.539a.78.78 0 0 1 0-1.104l4.553-4.553a.78.78 0 0 1 1.104 0l2.539 2.539.674-.42a20.839 20.839 0 0 1 6.311-2.613l.773-.18V2.78c0-.43.35-.78.78-.78h6.439c.431 0 .781.35.781.78v3.592l.773.18a20.885 20.885 0 0 1 6.311 2.613l.674.42 2.539-2.539a.78.78 0 0 1 1.104 0l4.553 4.553a.78.78 0 0 1 0 1.104l-2.539 2.539.42.674a20.818 20.818 0 0 1 2.613 6.311l.18.773h3.592c.43 0 .78.35.78.78v6.44z" /><path d="M27 17c-5.514 0-10 4.486-10 10s4.486 10 10 10 10-4.486 10-10-4.486-10-10-10zm0 18c-4.411 0-8-3.589-8-8s3.589-8 8-8 8 3.589 8 8-3.589 8-8 8z" /></symbol><symbol viewBox="0 0 58.365 58.365" id="home"><path d="M57.863 26.632l-8.681-8.061V5.365h-10v3.921L29.182 0 .502 26.632a1.001 1.001 0 0 0 1.362 1.466l3.319-3.082v33.349h48v-33.35l3.319 3.082a.995.995 0 0 0 .681.267 1 1 0 0 0 .68-1.732zM41.182 7.365h6v9.349l-6-5.571V7.365zm-18 49V35.302c0-.517.42-.937.937-.937h10.126c.517 0 .937.42.937.937v21.063h-12zm28 0h-14V35.302a2.94 2.94 0 0 0-2.937-2.937H24.119a2.94 2.94 0 0 0-2.937 2.937v21.063h-14V23.158l22-20.429 14.28 13.26 5.72 5.311 2 1.857v33.208z" /></symbol><symbol viewBox="0 0 58.365 58.365" id="home"><path d="M57.863 26.632l-8.681-8.061V5.365h-10v3.921L29.182 0 .502 26.632a1.001 1.001 0 0 0 1.362 1.466l3.319-3.082v33.349h48v-33.35l3.319 3.082a.995.995 0 0 0 .681.267 1 1 0 0 0 .68-1.732zM41.182 7.365h6v9.349l-6-5.571V7.365zm-18 49V35.302c0-.517.42-.937.937-.937h10.126c.517 0 .937.42.937.937v21.063h-12zm28 0h-14V35.302a2.94 2.94 0 0 0-2.937-2.937H24.119a2.94 2.94 0 0 0-2.937 2.937v21.063h-14V23.158l22-20.429 14.28 13.26 5.72 5.311 2 1.857v33.208z" /></symbol><symbol viewBox="0 0 52 52" id="question"><path d="M26 0C11.663 0 0 11.663 0 26s11.663 26 26 26 26-11.663 26-26S40.337 0 26 0zm0 50C12.767 50 2 39.233 2 26S12.767 2 26 2s24 10.767 24 24-10.767 24-24 24z" /><path d="M26 37a1 1 0 0 0-1 1v2a1 1 0 1 0 2 0v-2a1 1 0 0 0-1-1zM26.113 9.001L25.998 9a7.938 7.938 0 0 0-5.615 2.304A7.944 7.944 0 0 0 18 17a1 1 0 1 0 2 0c0-1.618.635-3.136 1.787-4.272 1.153-1.137 2.688-1.765 4.299-1.727 3.161.044 5.869 2.752 5.913 5.913a5.973 5.973 0 0 1-2.751 5.132C26.588 23.762 25 26.794 25 30.158V33a1 1 0 1 0 2 0v-2.842c0-2.642 1.276-5.105 3.332-6.432a7.96 7.96 0 0 0 3.667-6.84c-.06-4.287-3.598-7.825-7.886-7.885z" /></symbol><symbol viewBox="0 0 52 52" id="question"><path d="M26 0C11.663 0 0 11.663 0 26s11.663 26 26 26 26-11.663 26-26S40.337 0 26 0zm0 50C12.767 50 2 39.233 2 26S12.767 2 26 2s24 10.767 24 24-10.767 24-24 24z" /><path d="M26 37a1 1 0 0 0-1 1v2a1 1 0 1 0 2 0v-2a1 1 0 0 0-1-1zM26.113 9.001L25.998 9a7.938 7.938 0 0 0-5.615 2.304A7.944 7.944 0 0 0 18 17a1 1 0 1 0 2 0c0-1.618.635-3.136 1.787-4.272 1.153-1.137 2.688-1.765 4.299-1.727 3.161.044 5.869 2.752 5.913 5.913a5.973 5.973 0 0 1-2.751 5.132C26.588 23.762 25 26.794 25 30.158V33a1 1 0 1 0 2 0v-2.842c0-2.642 1.276-5.105 3.332-6.432a7.96 7.96 0 0 0 3.667-6.84c-.06-4.287-3.598-7.825-7.886-7.885z" /></symbol></defs><use id="blank-usage" xlink:href="#blank" class="sprite-symbol-usage" /><use id="gear-usage" xlink:href="#gear" class="sprite-symbol-usage" /><use id="gear-usage" xlink:href="#gear" class="sprite-symbol-usage" /><use id="home-usage" xlink:href="#home" class="sprite-symbol-usage" /><use id="home-usage" xlink:href="#home" class="sprite-symbol-usage" /><use id="question-usage" xlink:href="#question" class="sprite-symbol-usage" /><use id="question-usage" xlink:href="#question" class="sprite-symbol-usage" /></svg>